<mxfile host="65bd71144e">
    <diagram id="Q8GeIJUwyWDNPiCDLRA0" name="Page-1">
        <mxGraphModel dx="908" dy="1001" grid="1" gridSize="10" guides="1" tooltips="1" connect="1" arrows="1" fold="1" page="1" pageScale="1" pageWidth="400" pageHeight="400" math="0" shadow="0">
            <root>
                <mxCell id="0"/>
                <mxCell id="1" parent="0"/>
                <mxCell id="2" value="&lt;h1&gt;&lt;font style=&quot;font-size: 46px;&quot; face=&quot;Lucida Console&quot;&gt;&lt;i&gt;&lt;u&gt;g&lt;/u&gt;&lt;/i&gt;&lt;/font&gt;&lt;/h1&gt;" style="ellipse;whiteSpace=wrap;html=1;align=center;newEdgeStyle={&quot;edgeStyle&quot;:&quot;entityRelationEdgeStyle&quot;,&quot;startArrow&quot;:&quot;none&quot;,&quot;endArrow&quot;:&quot;none&quot;,&quot;segment&quot;:10,&quot;curved&quot;:1,&quot;sourcePerimeterSpacing&quot;:0,&quot;targetPerimeterSpacing&quot;:0};treeFolding=1;treeMoving=1;fillColor=#d80073;fontColor=#ffffff;strokeColor=#A50040;gradientColor=#00FFFF;gradientDirection=radial;sketch=1;curveFitting=1;jiggle=2;shadow=1;" vertex="1" parent="1">
                    <mxGeometry x="10" y="10" width="343" height="300" as="geometry"/>
                </mxCell>
                <mxCell id="3" value="" style="shape=flexArrow;endArrow=classic;html=1;fontFamily=Lucida Console;fontSize=46;" edge="1" parent="1">
                    <mxGeometry width="50" height="50" relative="1" as="geometry">
                        <mxPoint x="60" y="270" as="sourcePoint"/>
                        <mxPoint x="110" y="220" as="targetPoint"/>
                    </mxGeometry>
                </mxCell>
                <mxCell id="4" value="k" style="shape=umlActor;verticalLabelPosition=bottom;verticalAlign=top;html=1;outlineConnect=0;fontFamily=Lucida Console;fontSize=46;gradientColor=#00FFFF;gradientDirection=radial;sketch=1;curveFitting=1;jiggle=2;shadow=1;" vertex="1" parent="1">
                    <mxGeometry x="166.5" y="185" width="30" height="60" as="geometry"/>
                </mxCell>
                <mxCell id="5" value="" style="shape=cube;whiteSpace=wrap;html=1;boundedLbl=1;backgroundOutline=1;darkOpacity=0.05;darkOpacity2=0.1;shadow=1;sketch=1;fontFamily=Lucida Console;fontSize=46;gradientColor=#00FFFF;gradientDirection=radial;" vertex="1" parent="1">
                    <mxGeometry x="200" y="300" width="120" height="80" as="geometry"/>
                </mxCell>
            </root>
        </mxGraphModel>
    </diagram>
</mxfile>